Coordinates
version=1
nRows=10
nColumns=33
inDegrees=yes

Units are S.I. units (second, meters, Newtons, ...)
Angles are in degrees.

endheader
time	ground_thorax_rot_x	ground_thorax_rot_y	ground_thorax_rot_z	ground_thorax_tx	ground_thorax_ty	ground_thorax_tz	clav_prot_r	clav_elev_r	scapula_abduction_r	scapula_elevation_r	scapula_upward_rot_r	scapula_winging_r	shoulder_elv_r	plane_of_elev_r	axial_rot_r	elbow_flexion_r	pro_sup_r	wrist_flex_r	wrist_dev_r	clav_prot_l	clav_elev_l	scapula_abduction_l	scapula_elevation_l	scapula_upward_rot_l	scapula_winging_l	shoulder_elv_l	plane_of_elev_l	axial_rot_l	elbow_flexion_l	pro_sup_l	wrist_flex_l	wrist_dev_l
      2.19000000	     -1.52883052	      3.14977294	     10.83197272	     -0.10486167	      1.03013229	      0.01086331	      9.04877284	    -12.51872393	     15.57496958	     -4.88027786	     -0.75625733	     -1.90352924	    -33.59681868	    -76.51443999	    105.03977983	    -77.15895500	   -163.37174093	     38.46363046	    -18.48280626	     11.74604089	     -2.98606320	    -15.56646121	    -18.61185550	    -34.70587871	      0.31364171	     61.42247887	    -29.06652280	      3.87182162	     70.06593182	      9.71896133	      7.68193428	    -21.93549673
      2.20000000	     -1.49363205	      2.94957081	     10.74069602	     -0.10501180	      1.02989000	      0.01096347	      8.90540322	    -12.17086383	     15.16930651	     -4.41900334	     -1.10085674	     -1.89212299	    -34.33374311	    -76.93890355	    105.18007675	    -77.10381517	   -163.03025140	     38.65749121	    -18.56206968	     11.56011563	     -2.58066153	    -15.28941547	    -19.24514932	    -35.19323078	      0.07781805	     61.09844464	    -29.98957715	      3.95543811	     70.84535334	      9.78428741	      7.50236920	    -22.30851495
      2.21000000	     -1.28355875	      2.97020893	     10.67362869	     -0.10470289	      1.03011224	      0.01121405	      8.64053244	    -11.89424827	     14.60832764	     -4.07141918	     -1.33458706	     -1.78455037	    -36.28503636	    -77.31221652	    103.48697664	    -76.59297422	   -159.88349575	     40.81494235	    -19.94482432	     11.09859654	     -2.18486726	    -14.39195169	    -19.53023482	    -34.93379872	     -0.30855599	     60.79180681	    -30.97824740	      2.91178782	     70.66155006	     11.48243734	      5.63464081	    -24.99999983
      2.22000000	     -1.20185632	      2.72117901	     10.58551447	     -0.10460587	      1.03046718	      0.01125331	      8.67925926	    -11.66044557	     14.83872038	     -4.01213487	     -0.96168643	     -1.98747746	    -39.96221835	    -77.56441421	    100.58249201	    -75.77226813	   -156.26429467	     42.11490603	    -21.93307550	     10.65161653	     -1.82723807	    -13.48879743	    -19.69284931	    -34.49580795	     -0.66021037	     60.22039910	    -32.38206079	      2.11558754	     70.96649784	     13.22286196	      3.44853249	    -24.99999983
      2.23000000	     -1.14515823	      2.57094338	     10.59994964	     -0.10481415	      1.03030687	      0.01140564	      8.62323010	    -11.36462494	     14.54035562	     -3.55947233	     -1.39256852	     -1.98128873	    -40.62165524	    -77.75970229	    100.57914638	    -75.39102763	   -156.04835205	     42.12681543	    -21.93261794	     10.52214924	     -1.55559342	    -13.31914583	    -20.21843642	    -35.02367015	     -0.85235537	     59.91023841	    -33.22424630	      2.03179095	     71.20026093	     13.26635692	      3.37349930	    -24.99999983
      2.24000000	     -1.06143926	      2.61169828	     10.52936580	     -0.10475174	      1.03036653	      0.01162169	      8.61206824	    -11.06538163	     14.56803643	     -3.33653204	     -1.26971327	     -2.12043473	    -43.53426863	    -77.56890502	     97.86258282	    -74.38308896	   -152.68736982	     44.06423921	    -22.89403529	     10.21752716	     -1.13764819	    -12.72768285	    -20.64089890	    -35.01330011	     -1.14993500	     59.74699971	    -33.89103510	      1.01149204	     70.95793776	     14.92176197	      1.39074653	    -24.99999983
      2.25000000	     -0.96336747	      2.50946732	     10.50163352	     -0.10485831	      1.03044055	      0.01165215	      8.55483868	    -10.86459350	     14.28687367	     -2.98590491	     -1.66453290	     -2.07474348	    -43.98231544	    -77.71494938	     97.87670862	    -73.70370860	   -152.58138803	     43.99654249	    -22.93094996	     10.08225042	     -1.02495628	    -12.55506253	    -20.98753762	    -35.48855168	     -1.32332806	     59.38637424	    -34.59343737	      1.01112506	     70.79553256	     14.97860852	      1.33788081	    -24.99999983
      2.26000000	     -0.82760696	      2.51784903	     10.45801502	     -0.10474464	      1.03030925	      0.01193812	      8.51286684	    -10.38533350	     14.47611687	     -2.80838857	     -1.04641331	     -2.36767196	    -47.45594757	    -77.45806890	     94.99374946	    -72.52351249	   -149.31773116	     45.93006685	    -24.54771071	      9.85548921	     -0.63259765	    -12.05465991	    -21.25605557	    -35.21491873	     -1.53212530	     58.92659008	    -35.34042263	     -0.05915142	     70.29109334	     17.07942274	     -0.94024663	    -24.99999983
      2.27000000	     -0.76924721	      2.42143286	     10.44598656	     -0.10479955	      1.03044302	      0.01202509	      8.48308751	    -10.27997214	     14.24978138	     -2.55205916	     -1.42495748	     -2.30430117	    -47.78970464	    -77.48081588	     94.96258315	    -71.71543431	   -149.22562532	     45.80171464	    -24.53162420	      9.73294154	     -0.58251261	    -11.90787527	    -21.52858945	    -35.66417753	     -1.68663345	     58.60386876	    -35.98386589	     -0.03551052	     69.85131507	     17.13528417	     -0.94920909	    -24.99999983
      2.28000000	     -0.67744559	      2.31305747	     10.47012011	     -0.10491553	      1.03053429	      0.01202177	      8.44765089	    -10.19264721	     14.03520871	     -2.32873202	     -1.76075936	     -2.23799959	    -48.07719760	    -77.50844811	     94.91735018	    -70.90415338	   -149.05647507	     45.75129935	    -24.51682653	      9.62740144	     -0.54416105	    -11.79653805	    -21.78126964	    -36.09873641	     -1.81626599	     58.24476115	    -36.52517908	     -0.19433165	     69.23542501	     17.27509231	     -0.95924286	    -24.99999983
